<?xml version="1.0" standalone="no"?>
<!DOCTYPE svg PUBLIC "-//W3C//DTD SVG 20010904//EN"
 "http://www.w3.org/TR/2001/REC-SVG-20010904/DTD/svg10.dtd">
<svg version="1.0" xmlns="http://www.w3.org/2000/svg"
 width="512.000000pt" height="512.000000pt" viewBox="0 0 512.000000 512.000000"
 preserveAspectRatio="xMidYMid meet">
<metadata>
Created by potrace 1.14, written by Peter Selinger 2001-2017
</metadata>
<g transform="translate(0.000000,512.000000) scale(0.100000,-0.100000)"
fill="#000000" stroke="none">
<path d="M2315 5109 c-720 -74 -1370 -439 -1799 -1009 -505 -670 -649 -1543
-386 -2340 127 -387 332 -720 621 -1009 405 -405 902 -649 1494 -733 118 -17
512 -17 630 0 592 84 1088 328 1494 733 405 406 649 902 733 1494 17 118 17
512 0 630 -84 592 -328 1088 -733 1494 -396 395 -881 639 -1449 726 -126 19
-477 28 -605 14z m1013 -1894 c73 -17 141 -50 197 -95 l40 -32 3 56 3 56 209
0 210 0 0 -625 0 -625 -210 0 -210 0 0 56 0 56 -37 -30 c-90 -71 -212 -112
-328 -112 -264 1 -463 166 -536 445 -16 61 -21 110 -21 210 0 153 21 248 79
364 111 220 357 333 601 276z m-1778 -353 c0 -274 3 -348 15 -390 30 -100 100
-152 207 -152 77 0 131 23 175 73 58 66 63 103 63 474 l0 333 210 0 210 0 0
-625 0 -625 -210 0 -210 0 0 60 0 61 -52 -40 c-172 -127 -377 -148 -565 -56
-114 56 -185 152 -235 317 -20 69 -22 96 -26 491 l-4 417 211 0 211 0 0 -338z"/>
<path d="M3204 2806 c-109 -51 -160 -186 -120 -320 32 -106 117 -166 236 -166
95 0 138 15 191 69 53 52 69 96 69 186 0 90 -16 134 -69 186 -53 54 -96 69
-191 69 -47 0 -79 -7 -116 -24z"/>
</g>
</svg>
